<svg width="337" height="182" viewBox="0 0 337 182" fill="none" xmlns="http://www.w3.org/2000/svg">
<g filter="url(#filter0_d_9_21)">
<path d="M233.69 100.424C233.116 100.424 232.619 100.319 232.199 100.109C231.779 99.8848 231.457 99.5768 231.233 99.1848C231.023 98.7928 230.918 98.3378 230.918 97.8198C230.918 97.2038 231.058 96.6998 231.338 96.3078C231.632 95.9158 232.003 95.6008 232.451 95.3628C232.899 95.1248 233.368 94.9288 233.858 94.7748C234.362 94.6068 234.838 94.4528 235.286 94.3128C235.734 94.1588 236.098 93.9838 236.378 93.7878C236.672 93.5918 236.819 93.3328 236.819 93.0108V91.7088C236.819 91.1208 236.728 90.6728 236.546 90.3648C236.378 90.0568 236.147 89.8538 235.853 89.7558C235.559 89.6438 235.23 89.5878 234.866 89.5878C234.516 89.5878 234.138 89.6368 233.732 89.7348C233.34 89.8328 233.025 90.0358 232.787 90.3438C233.053 90.3998 233.284 90.5398 233.48 90.7638C233.676 90.9878 233.774 91.2748 233.774 91.6248C233.774 91.9748 233.662 92.2548 233.438 92.4648C233.214 92.6608 232.927 92.7588 232.577 92.7588C232.171 92.7588 231.87 92.6328 231.674 92.3808C231.492 92.1148 231.401 91.8208 231.401 91.4988C231.401 91.1348 231.492 90.8408 231.674 90.6168C231.856 90.3928 232.087 90.1828 232.367 89.9868C232.689 89.7628 233.102 89.5738 233.606 89.4198C234.124 89.2518 234.705 89.1678 235.349 89.1678C235.923 89.1678 236.413 89.2378 236.819 89.3778C237.225 89.5038 237.561 89.6928 237.827 89.9448C238.191 90.2808 238.429 90.6938 238.541 91.1838C238.653 91.6598 238.709 92.2338 238.709 92.9058V98.7438C238.709 99.0938 238.758 99.3458 238.856 99.4998C238.968 99.6538 239.136 99.7308 239.36 99.7308C239.514 99.7308 239.661 99.6958 239.801 99.6258C239.941 99.5558 240.109 99.4438 240.305 99.2898L240.536 99.6468C240.242 99.8708 239.962 100.06 239.696 100.214C239.43 100.354 239.073 100.424 238.625 100.424C238.219 100.424 237.883 100.354 237.617 100.214C237.351 100.074 237.148 99.8708 237.008 99.6048C236.882 99.3248 236.819 98.9748 236.819 98.5548C236.441 99.1848 235.986 99.6538 235.454 99.9618C234.936 100.27 234.348 100.424 233.69 100.424ZM234.446 99.5838C234.908 99.5838 235.335 99.4508 235.727 99.1848C236.133 98.9188 236.497 98.5198 236.819 97.9878V93.8718C236.651 94.1098 236.406 94.3128 236.084 94.4808C235.762 94.6348 235.412 94.7958 235.034 94.9638C234.656 95.1178 234.292 95.3068 233.942 95.5308C233.606 95.7408 233.326 96.0208 233.102 96.3708C232.878 96.7208 232.766 97.1758 232.766 97.7358C232.766 98.2958 232.913 98.7438 233.207 99.0798C233.515 99.4158 233.928 99.5838 234.446 99.5838ZM248.223 83.8548C248.615 83.8548 248.986 83.8828 249.336 83.9388C249.686 83.9948 250.008 84.0718 250.302 84.1698C250.596 84.2538 250.841 84.3588 251.037 84.4848C251.261 84.6248 251.436 84.7928 251.562 84.9888C251.688 85.1708 251.751 85.3878 251.751 85.6398C251.751 86.0178 251.618 86.3398 251.352 86.6058C251.086 86.8718 250.771 87.0048 250.407 87.0048C250.043 87.0048 249.728 86.8718 249.462 86.6058C249.196 86.3398 249.063 86.0248 249.063 85.6608C249.063 85.4088 249.126 85.1778 249.252 84.9678C249.378 84.7578 249.546 84.5968 249.756 84.4848C249.574 84.3728 249.343 84.2958 249.063 84.2538C248.783 84.1978 248.503 84.1698 248.223 84.1698C247.495 84.1698 246.886 84.3168 246.396 84.6108C245.906 84.9048 245.521 85.2968 245.241 85.7868C245.045 86.1368 244.898 86.5848 244.8 87.1308C244.716 87.6768 244.674 88.4608 244.674 89.4828H248.055C248.615 89.4828 249.098 89.4758 249.504 89.4618C249.91 89.4478 250.274 89.4268 250.596 89.3988C250.918 89.3568 251.233 89.3008 251.541 89.2308V98.3238C251.541 98.9118 251.66 99.3108 251.898 99.5208C252.15 99.7308 252.563 99.8358 253.137 99.8358V100.277C252.899 100.263 252.535 100.249 252.045 100.235C251.569 100.207 251.086 100.193 250.596 100.193C250.12 100.193 249.637 100.207 249.147 100.235C248.657 100.249 248.293 100.263 248.055 100.277V99.8358C248.629 99.8358 249.035 99.7308 249.273 99.5208C249.525 99.3108 249.651 98.9118 249.651 98.3238V91.7508C249.651 91.1208 249.539 90.6588 249.315 90.3648C249.091 90.0568 248.671 89.9028 248.055 89.9028H244.674V98.3238C244.674 98.9258 244.835 99.3318 245.157 99.5418C245.479 99.7378 245.92 99.8358 246.48 99.8358V100.277C246.2 100.263 245.801 100.249 245.283 100.235C244.779 100.207 244.261 100.193 243.729 100.193C243.211 100.193 242.714 100.207 242.238 100.235C241.776 100.249 241.426 100.263 241.188 100.277V99.8358C241.762 99.8358 242.168 99.7308 242.406 99.5208C242.658 99.3108 242.784 98.9118 242.784 98.3238V89.9028H241.104V89.4828H242.784C242.784 88.5868 242.896 87.7818 243.12 87.0678C243.358 86.3538 243.75 85.7378 244.296 85.2198C244.702 84.8418 245.227 84.5198 245.871 84.2538C246.515 83.9878 247.299 83.8548 248.223 83.8548Z" fill="#86EAF8"/>
<path d="M73.7555 91.6442C74.6515 91.6442 75.4565 91.8402 76.1705 92.2322C76.8845 92.6242 77.4515 93.2402 77.8715 94.0802C78.3055 94.9202 78.5225 96.0122 78.5225 97.3562C78.5225 98.7002 78.3055 99.7922 77.8715 100.632C77.4515 101.458 76.8845 102.067 76.1705 102.459C75.4565 102.851 74.6515 103.047 73.7555 103.047C72.8735 103.047 72.0685 102.851 71.3405 102.459C70.6265 102.067 70.0525 101.458 69.6185 100.632C69.1985 99.7922 68.9885 98.7002 68.9885 97.3562C68.9885 96.0122 69.1985 94.9202 69.6185 94.0802C70.0525 93.2402 70.6265 92.6242 71.3405 92.2322C72.0685 91.8402 72.8735 91.6442 73.7555 91.6442ZM73.7555 92.0642C72.9575 92.0642 72.2995 92.4772 71.7815 93.3032C71.2775 94.1292 71.0255 95.4802 71.0255 97.3562C71.0255 99.2322 71.2775 100.583 71.7815 101.409C72.2995 102.221 72.9575 102.627 73.7555 102.627C74.5535 102.627 75.2045 102.221 75.7085 101.409C76.2265 100.583 76.4855 99.2322 76.4855 97.3562C76.4855 95.4802 76.2265 94.1292 75.7085 93.3032C75.2045 92.4772 74.5535 92.0642 73.7555 92.0642ZM83.2073 86.3102V94.1642C83.5713 93.2122 84.0753 92.5542 84.7193 92.1902C85.3773 91.8262 86.0633 91.6442 86.7773 91.6442C87.3093 91.6442 87.7503 91.7142 88.1003 91.8542C88.4643 91.9942 88.7653 92.1902 89.0033 92.4422C89.2693 92.7222 89.4583 93.0722 89.5703 93.4922C89.6823 93.9122 89.7383 94.4792 89.7383 95.1932V100.8C89.7383 101.388 89.8573 101.787 90.0953 101.997C90.3473 102.207 90.7603 102.312 91.3343 102.312V102.753C91.0963 102.739 90.7323 102.725 90.2423 102.711C89.7523 102.683 89.2763 102.669 88.8143 102.669C88.3523 102.669 87.8973 102.683 87.4493 102.711C87.0153 102.725 86.6863 102.739 86.4623 102.753V102.312C86.9663 102.312 87.3233 102.207 87.5333 101.997C87.7433 101.787 87.8483 101.388 87.8483 100.8V94.7312C87.8483 94.2972 87.8133 93.8982 87.7433 93.5342C87.6733 93.1702 87.5123 92.8762 87.2603 92.6522C87.0223 92.4282 86.6513 92.3162 86.1473 92.3162C85.5733 92.3162 85.0623 92.4772 84.6143 92.7992C84.1803 93.1212 83.8373 93.5692 83.5853 94.1432C83.3333 94.7172 83.2073 95.3752 83.2073 96.1172V100.8C83.2073 101.388 83.3123 101.787 83.5223 101.997C83.7323 102.207 84.0893 102.312 84.5933 102.312V102.753C84.3693 102.739 84.0333 102.725 83.5853 102.711C83.1513 102.683 82.7033 102.669 82.2413 102.669C81.7793 102.669 81.3033 102.683 80.8133 102.711C80.3233 102.725 79.9593 102.739 79.7213 102.753V102.312C80.2953 102.312 80.7013 102.207 80.9393 101.997C81.1913 101.787 81.3173 101.388 81.3173 100.8V88.8302C81.3173 88.2002 81.2053 87.7382 80.9813 87.4442C80.7573 87.1362 80.3373 86.9822 79.7213 86.9822V86.5412C80.1693 86.5832 80.6033 86.6042 81.0233 86.6042C81.4293 86.6042 81.8143 86.5832 82.1783 86.5412C82.5563 86.4852 82.8993 86.4082 83.2073 86.3102ZM95.238 102.9C94.664 102.9 94.167 102.795 93.747 102.585C93.327 102.361 93.005 102.053 92.781 101.661C92.571 101.269 92.466 100.814 92.466 100.296C92.466 99.6802 92.606 99.1762 92.886 98.7842C93.18 98.3922 93.551 98.0772 93.999 97.8392C94.447 97.6012 94.916 97.4052 95.406 97.2512C95.91 97.0832 96.386 96.9292 96.834 96.7892C97.282 96.6352 97.646 96.4602 97.926 96.2642C98.22 96.0682 98.367 95.8092 98.367 95.4872V94.1852C98.367 93.5972 98.276 93.1492 98.094 92.8412C97.926 92.5332 97.695 92.3302 97.401 92.2322C97.107 92.1202 96.778 92.0642 96.414 92.0642C96.064 92.0642 95.686 92.1132 95.28 92.2112C94.888 92.3092 94.573 92.5122 94.335 92.8202C94.601 92.8762 94.832 93.0162 95.028 93.2402C95.224 93.4642 95.322 93.7512 95.322 94.1012C95.322 94.4512 95.21 94.7312 94.986 94.9412C94.762 95.1372 94.475 95.2352 94.125 95.2352C93.719 95.2352 93.418 95.1092 93.222 94.8572C93.04 94.5912 92.949 94.2972 92.949 93.9752C92.949 93.6112 93.04 93.3172 93.222 93.0932C93.404 92.8692 93.635 92.6592 93.915 92.4632C94.237 92.2392 94.65 92.0502 95.154 91.8962C95.672 91.7282 96.253 91.6442 96.897 91.6442C97.471 91.6442 97.961 91.7142 98.367 91.8542C98.773 91.9802 99.109 92.1692 99.375 92.4212C99.739 92.7572 99.977 93.1702 100.089 93.6602C100.201 94.1362 100.257 94.7102 100.257 95.3822V101.22C100.257 101.57 100.306 101.822 100.404 101.976C100.516 102.13 100.684 102.207 100.908 102.207C101.062 102.207 101.209 102.172 101.349 102.102C101.489 102.032 101.657 101.92 101.853 101.766L102.084 102.123C101.79 102.347 101.51 102.536 101.244 102.69C100.978 102.83 100.621 102.9 100.173 102.9C99.767 102.9 99.431 102.83 99.165 102.69C98.899 102.55 98.696 102.347 98.556 102.081C98.43 101.801 98.367 101.451 98.367 101.031C97.989 101.661 97.534 102.13 97.002 102.438C96.484 102.746 95.896 102.9 95.238 102.9ZM95.994 102.06C96.456 102.06 96.883 101.927 97.275 101.661C97.681 101.395 98.045 100.996 98.367 100.464V96.3482C98.199 96.5862 97.954 96.7892 97.632 96.9572C97.31 97.1112 96.96 97.2722 96.582 97.4402C96.204 97.5942 95.84 97.7832 95.49 98.0072C95.154 98.2172 94.874 98.4972 94.65 98.8472C94.426 99.1972 94.314 99.6522 94.314 100.212C94.314 100.772 94.461 101.22 94.755 101.556C95.063 101.892 95.476 102.06 95.994 102.06ZM109.645 91.6442C110.135 91.6442 110.562 91.7142 110.926 91.8542C111.29 91.9942 111.591 92.1902 111.829 92.4422C112.095 92.7222 112.277 93.0862 112.375 93.5342C112.473 93.9822 112.522 94.5352 112.522 95.1932V100.8C112.522 101.388 112.641 101.787 112.879 101.997C113.131 102.207 113.544 102.312 114.118 102.312V102.753C113.88 102.739 113.516 102.725 113.026 102.711C112.536 102.683 112.06 102.669 111.598 102.669C111.136 102.669 110.681 102.683 110.233 102.711C109.799 102.725 109.47 102.739 109.246 102.753V102.312C109.75 102.312 110.107 102.207 110.317 101.997C110.527 101.787 110.632 101.388 110.632 100.8V94.7312C110.632 94.2972 110.604 93.8982 110.548 93.5342C110.492 93.1702 110.352 92.8762 110.128 92.6522C109.904 92.4282 109.54 92.3162 109.036 92.3162C108.49 92.3162 108 92.4842 107.566 92.8202C107.146 93.1562 106.81 93.6182 106.558 94.2062C106.32 94.7802 106.201 95.4242 106.201 96.1382V100.8C106.201 101.388 106.306 101.787 106.516 101.997C106.726 102.207 107.083 102.312 107.587 102.312V102.753C107.363 102.739 107.027 102.725 106.579 102.711C106.145 102.683 105.697 102.669 105.235 102.669C104.773 102.669 104.297 102.683 103.807 102.711C103.317 102.725 102.953 102.739 102.715 102.753V102.312C103.289 102.312 103.695 102.207 103.933 101.997C104.185 101.787 104.311 101.388 104.311 100.8V94.2272C104.311 93.5972 104.199 93.1352 103.975 92.8412C103.751 92.5332 103.331 92.3792 102.715 92.3792V91.9382C103.163 91.9802 103.597 92.0012 104.017 92.0012C104.423 92.0012 104.808 91.9802 105.172 91.9382C105.55 91.8822 105.893 91.8052 106.201 91.7072V94.1852C106.565 93.2752 107.062 92.6242 107.692 92.2322C108.322 91.8402 108.973 91.6442 109.645 91.6442ZM115.966 91.6442C116.456 91.6442 116.883 91.7142 117.247 91.8542C117.611 91.9942 117.912 92.1902 118.15 92.4422C118.416 92.7222 118.598 93.0862 118.696 93.5342C118.794 93.9822 118.843 94.5352 118.843 95.1932V100.8C118.843 101.388 118.962 101.787 119.2 101.997C119.452 102.207 119.865 102.312 120.439 102.312V102.753C120.201 102.739 119.837 102.725 119.347 102.711C118.857 102.683 118.381 102.669 117.919 102.669C117.457 102.669 117.002 102.683 116.554 102.711C116.12 102.725 115.791 102.739 115.567 102.753V102.312C116.071 102.312 116.428 102.207 116.638 101.997C116.848 101.787 116.953 101.388 116.953 100.8V94.7312C116.953 94.2972 116.925 93.8982 116.869 93.5342C116.813 93.1702 116.673 92.8762 116.449 92.6522C116.225 92.4282 115.861 92.3162 115.357 92.3162C114.811 92.3162 114.321 92.4842 113.887 92.8202C113.467 93.1562 113.131 93.6112 112.879 94.1852C112.641 94.7592 112.522 95.4032 112.522 96.1172L112.459 94.1642C112.837 93.1982 113.348 92.5402 113.992 92.1902C114.636 91.8262 115.294 91.6442 115.966 91.6442ZM128.287 91.6442C128.777 91.6442 129.204 91.7142 129.568 91.8542C129.932 91.9942 130.233 92.1902 130.471 92.4422C130.737 92.7222 130.919 93.0862 131.017 93.5342C131.115 93.9822 131.164 94.5352 131.164 95.1932V100.8C131.164 101.388 131.283 101.787 131.521 101.997C131.773 102.207 132.186 102.312 132.76 102.312V102.753C132.522 102.739 132.158 102.725 131.668 102.711C131.178 102.683 130.702 102.669 130.24 102.669C129.778 102.669 129.323 102.683 128.875 102.711C128.441 102.725 128.112 102.739 127.888 102.753V102.312C128.392 102.312 128.749 102.207 128.959 101.997C129.169 101.787 129.274 101.388 129.274 100.8V94.7312C129.274 94.2972 129.246 93.8982 129.19 93.5342C129.134 93.1702 128.994 92.8762 128.77 92.6522C128.546 92.4282 128.182 92.3162 127.678 92.3162C127.132 92.3162 126.642 92.4842 126.208 92.8202C125.788 93.1562 125.452 93.6182 125.2 94.2062C124.962 94.7802 124.843 95.4242 124.843 96.1382V100.8C124.843 101.388 124.948 101.787 125.158 101.997C125.368 102.207 125.725 102.312 126.229 102.312V102.753C126.005 102.739 125.669 102.725 125.221 102.711C124.787 102.683 124.339 102.669 123.877 102.669C123.415 102.669 122.939 102.683 122.449 102.711C121.959 102.725 121.595 102.739 121.357 102.753V102.312C121.931 102.312 122.337 102.207 122.575 101.997C122.827 101.787 122.953 101.388 122.953 100.8V94.2272C122.953 93.5972 122.841 93.1352 122.617 92.8412C122.393 92.5332 121.973 92.3792 121.357 92.3792V91.9382C121.805 91.9802 122.239 92.0012 122.659 92.0012C123.065 92.0012 123.45 91.9802 123.814 91.9382C124.192 91.8822 124.535 91.8052 124.843 91.7072V94.1852C125.207 93.2752 125.704 92.6242 126.334 92.2322C126.964 91.8402 127.615 91.6442 128.287 91.6442ZM134.608 91.6442C135.098 91.6442 135.525 91.7142 135.889 91.8542C136.253 91.9942 136.554 92.1902 136.792 92.4422C137.058 92.7222 137.24 93.0862 137.338 93.5342C137.436 93.9822 137.485 94.5352 137.485 95.1932V100.8C137.485 101.388 137.604 101.787 137.842 101.997C138.094 102.207 138.507 102.312 139.081 102.312V102.753C138.843 102.739 138.479 102.725 137.989 102.711C137.499 102.683 137.023 102.669 136.561 102.669C136.099 102.669 135.644 102.683 135.196 102.711C134.762 102.725 134.433 102.739 134.209 102.753V102.312C134.713 102.312 135.07 102.207 135.28 101.997C135.49 101.787 135.595 101.388 135.595 100.8V94.7312C135.595 94.2972 135.567 93.8982 135.511 93.5342C135.455 93.1702 135.315 92.8762 135.091 92.6522C134.867 92.4282 134.503 92.3162 133.999 92.3162C133.453 92.3162 132.963 92.4842 132.529 92.8202C132.109 93.1562 131.773 93.6112 131.521 94.1852C131.283 94.7592 131.164 95.4032 131.164 96.1172L131.101 94.1642C131.479 93.1982 131.99 92.5402 132.634 92.1902C133.278 91.8262 133.936 91.6442 134.608 91.6442ZM145.101 91.6442C146.333 91.6442 147.292 92.0222 147.978 92.7782C148.678 93.5202 149.028 94.6822 149.028 96.2642H141.615L141.594 95.8652H147.012C147.04 95.1792 146.984 94.5492 146.844 93.9752C146.704 93.3872 146.48 92.9182 146.172 92.5682C145.878 92.2182 145.493 92.0432 145.017 92.0432C144.373 92.0432 143.799 92.3652 143.295 93.0092C142.805 93.6532 142.511 94.6752 142.413 96.0752L142.476 96.1592C142.448 96.3692 142.427 96.6002 142.413 96.8522C142.399 97.1042 142.392 97.3562 142.392 97.6082C142.392 98.5602 142.546 99.3792 142.854 100.065C143.162 100.751 143.561 101.276 144.051 101.64C144.555 101.99 145.073 102.165 145.605 102.165C146.025 102.165 146.424 102.102 146.802 101.976C147.18 101.836 147.53 101.612 147.852 101.304C148.174 100.996 148.454 100.583 148.692 100.065L149.112 100.233C148.958 100.695 148.706 101.143 148.356 101.577C148.006 102.011 147.565 102.368 147.033 102.648C146.501 102.914 145.885 103.047 145.185 103.047C144.177 103.047 143.309 102.816 142.581 102.354C141.867 101.892 141.314 101.255 140.922 100.443C140.544 99.6172 140.355 98.6722 140.355 97.6082C140.355 96.3762 140.551 95.3192 140.943 94.4372C141.335 93.5412 141.888 92.8552 142.602 92.3792C143.316 91.8892 144.149 91.6442 145.101 91.6442ZM160.176 86.2892V100.464C160.176 101.094 160.288 101.563 160.512 101.871C160.75 102.165 161.17 102.312 161.772 102.312V102.753C161.338 102.711 160.904 102.69 160.47 102.69C160.064 102.69 159.672 102.711 159.294 102.753C158.93 102.795 158.594 102.872 158.286 102.984V88.8092C158.286 88.1792 158.174 87.7172 157.95 87.4232C157.726 87.1152 157.306 86.9612 156.69 86.9612V86.5202C157.138 86.5622 157.572 86.5832 157.992 86.5832C158.398 86.5832 158.783 86.5622 159.147 86.5202C159.525 86.4642 159.868 86.3872 160.176 86.2892ZM155.766 91.6442C156.382 91.6442 156.956 91.7912 157.488 92.0852C158.034 92.3792 158.398 92.8832 158.58 93.5972L158.307 93.8072C158.111 93.2192 157.803 92.7922 157.383 92.5262C156.977 92.2602 156.494 92.1272 155.934 92.1272C155.108 92.1272 154.415 92.5542 153.855 93.4082C153.309 94.2622 153.043 95.5782 153.057 97.3562C153.057 98.4902 153.162 99.4352 153.372 100.191C153.596 100.933 153.918 101.493 154.338 101.871C154.772 102.235 155.297 102.417 155.913 102.417C156.501 102.417 157.033 102.165 157.509 101.661C157.985 101.157 158.272 100.415 158.37 99.4352L158.622 99.7292C158.51 100.793 158.167 101.612 157.593 102.186C157.033 102.76 156.27 103.047 155.304 103.047C154.436 103.047 153.673 102.837 153.015 102.417C152.371 101.997 151.874 101.367 151.524 100.527C151.188 99.6872 151.02 98.6302 151.02 97.3562C151.02 96.0822 151.237 95.0252 151.671 94.1852C152.119 93.3312 152.7 92.6942 153.414 92.2742C154.142 91.8542 154.926 91.6442 155.766 91.6442Z" fill="#86EAF8"/>
<mask id="mask0_9_21" style="mask-type:alpha" maskUnits="userSpaceOnUse" x="0" y="0" width="335" height="103">
<path d="M0 0H334.993V87.9243L284.11 90.5671L266.721 84.7709H258.906H227.005V100.136H188.858L161.158 84.7709H110.038H60.7217L52.8887 100.136L2.38419e-07 102.753L0 0Z" fill="#86EAF8"/>
</mask>
<g mask="url(#mask0_9_21)">
<path d="M177.285 27.8293V31.6293C172.978 31.756 169.685 32.2626 167.405 33.1493C165.251 33.9093 163.795 35.4293 163.035 37.7093C162.275 39.8626 161.895 43.2826 161.895 47.9693V142.209C161.895 146.769 162.275 150.189 163.035 152.469C163.795 154.749 165.251 156.269 167.405 157.029C169.685 157.789 172.978 158.296 177.285 158.549V162.349C174.371 162.096 170.698 161.969 166.265 161.969C161.958 161.843 157.588 161.779 153.155 161.779C148.215 161.779 143.591 161.843 139.285 161.969C134.978 161.969 131.495 162.096 128.835 162.349V158.549C133.141 158.296 136.371 157.789 138.525 157.029C140.805 156.269 142.325 154.749 143.085 152.469C143.845 150.189 144.225 146.769 144.225 142.209V37.7093L144.985 38.2793L98.4346 163.299H95.3946L47.5146 39.9893V140.309C47.5146 144.869 47.8946 148.479 48.6546 151.139C49.5413 153.673 51.1879 155.509 53.5946 156.649C56.1279 157.663 59.8646 158.296 64.8046 158.549V162.349C62.5246 162.096 59.5479 161.969 55.8746 161.969C52.2013 161.843 48.7179 161.779 45.4246 161.779C42.2579 161.779 39.0279 161.843 35.7346 161.969C32.5679 161.969 29.9079 162.096 27.7546 162.349V158.549C32.0613 158.296 35.2913 157.663 37.4446 156.649C39.7246 155.509 41.2446 153.673 42.0046 151.139C42.7646 148.479 43.1446 144.869 43.1446 140.309V47.9693C43.1446 43.2826 42.7646 39.8626 42.0046 37.7093C41.2446 35.4293 39.7246 33.9093 37.4446 33.1493C35.2913 32.2626 32.0613 31.756 27.7546 31.6293V27.8293C29.9079 27.956 32.5679 28.0826 35.7346 28.2093C39.0279 28.336 42.2579 28.3993 45.4246 28.3993C48.2113 28.3993 51.0613 28.336 53.9746 28.2093C57.0146 28.0826 59.5479 27.956 61.5746 27.8293L104.705 141.449L101.475 142.969L144.225 28.3993C145.745 28.3993 147.201 28.3993 148.595 28.3993C150.115 28.3993 151.635 28.3993 153.155 28.3993C157.588 28.3993 161.958 28.336 166.265 28.2093C170.698 28.0826 174.371 27.956 177.285 27.8293ZM193.262 27.8293C195.922 27.956 199.406 28.0826 203.712 28.2093C208.019 28.336 212.262 28.3993 216.442 28.3993C222.396 28.3993 228.096 28.336 233.542 28.2093C238.989 28.0826 242.852 28.0193 245.132 28.0193C255.392 28.0193 263.879 29.476 270.592 32.3893C277.432 35.3026 282.499 39.2926 285.792 44.3593C289.212 49.2993 290.922 54.8726 290.922 61.0793C290.922 64.8793 290.162 68.9326 288.642 73.2393C287.122 77.546 284.462 81.5993 280.662 85.3993C276.989 89.1993 271.922 92.366 265.462 94.8993C259.002 97.306 250.832 98.5093 240.952 98.5093H222.712V94.7093H239.052C248.046 94.7093 254.886 93.316 259.572 90.5293C264.386 87.616 267.616 83.816 269.262 79.1293C271.036 74.316 271.922 68.996 271.922 63.1693C271.922 53.1626 269.516 45.436 264.702 39.9893C260.016 34.416 251.909 31.6293 240.382 31.6293C234.556 31.6293 230.756 32.706 228.982 34.8593C227.209 37.0126 226.322 41.3826 226.322 47.9693V142.209C226.322 146.769 226.702 150.189 227.462 152.469C228.222 154.749 229.679 156.269 231.832 157.029C234.112 157.789 237.406 158.296 241.712 158.549V162.349C238.799 162.096 235.126 161.969 230.692 161.969C226.386 161.843 222.016 161.779 217.582 161.779C212.642 161.779 208.019 161.843 203.712 161.969C199.406 161.969 195.922 162.096 193.262 162.349V158.549C197.569 158.296 200.799 157.789 202.952 157.029C205.232 156.269 206.752 154.749 207.512 152.469C208.272 150.189 208.652 146.769 208.652 142.209V47.9693C208.652 43.2826 208.272 39.8626 207.512 37.7093C206.752 35.4293 205.232 33.9093 202.952 33.1493C200.799 32.2626 197.569 31.756 193.262 31.6293V27.8293ZM223.472 95.2793C230.312 95.5326 235.696 95.8493 239.622 96.2293C243.549 96.4826 246.716 96.736 249.122 96.9893C251.656 97.2426 254.062 97.5593 256.342 97.9393C264.829 99.3326 270.909 101.929 274.582 105.729C278.382 109.403 281.169 115.166 282.942 123.019L287.692 142.399C288.959 147.973 290.226 152.026 291.492 154.559C292.886 156.966 294.976 158.106 297.762 157.979C299.916 157.853 301.689 157.156 303.082 155.889C304.602 154.623 306.186 152.913 307.832 150.759L310.682 152.849C308.022 156.776 305.236 159.816 302.322 161.969C299.536 163.996 295.546 165.009 290.352 165.009C285.666 165.009 281.549 163.616 278.002 160.829C274.456 158.043 271.796 152.596 270.022 144.489L265.842 125.489C264.702 120.043 263.372 115.356 261.852 111.429C260.459 107.376 258.432 104.209 255.772 101.929C253.239 99.6493 249.439 98.5093 244.372 98.5093H223.852L223.472 95.2793Z" fill="#86EAF8"/>
</g>
<mask id="mask1_9_21" style="mask-type:alpha" maskUnits="userSpaceOnUse" x="1" y="75" width="336" height="107">
<path d="M1.52457 97.7887H63.8939L66.2986 105.67H160.77L207.938 97.7887L230.736 83.6413V104.535L254.801 103.603V84.9472L266.181 75.8061L336.517 97.7887V181.638H1.52457V97.7887Z" fill="#86EAF8"/>
</mask>
<g mask="url(#mask1_9_21)">
<path d="M177.285 27.8293V31.6293C172.978 31.756 169.685 32.2626 167.405 33.1493C165.251 33.9093 163.795 35.4293 163.035 37.7093C162.275 39.8626 161.895 43.2826 161.895 47.9693V142.209C161.895 146.769 162.275 150.189 163.035 152.469C163.795 154.749 165.251 156.269 167.405 157.029C169.685 157.789 172.978 158.296 177.285 158.549V162.349C174.371 162.096 170.698 161.969 166.265 161.969C161.958 161.843 157.588 161.779 153.155 161.779C148.215 161.779 143.591 161.843 139.285 161.969C134.978 161.969 131.495 162.096 128.835 162.349V158.549C133.141 158.296 136.371 157.789 138.525 157.029C140.805 156.269 142.325 154.749 143.085 152.469C143.845 150.189 144.225 146.769 144.225 142.209V37.7093L144.985 38.2793L98.4346 163.299H95.3946L47.5146 39.9893V140.309C47.5146 144.869 47.8946 148.479 48.6546 151.139C49.5413 153.673 51.1879 155.509 53.5946 156.649C56.1279 157.663 59.8646 158.296 64.8046 158.549V162.349C62.5246 162.096 59.5479 161.969 55.8746 161.969C52.2013 161.843 48.7179 161.779 45.4246 161.779C42.2579 161.779 39.0279 161.843 35.7346 161.969C32.5679 161.969 29.9079 162.096 27.7546 162.349V158.549C32.0613 158.296 35.2913 157.663 37.4446 156.649C39.7246 155.509 41.2446 153.673 42.0046 151.139C42.7646 148.479 43.1446 144.869 43.1446 140.309V47.9693C43.1446 43.2826 42.7646 39.8626 42.0046 37.7093C41.2446 35.4293 39.7246 33.9093 37.4446 33.1493C35.2913 32.2626 32.0613 31.756 27.7546 31.6293V27.8293C29.9079 27.956 32.5679 28.0826 35.7346 28.2093C39.0279 28.336 42.2579 28.3993 45.4246 28.3993C48.2113 28.3993 51.0613 28.336 53.9746 28.2093C57.0146 28.0826 59.5479 27.956 61.5746 27.8293L104.705 141.449L101.475 142.969L144.225 28.3993C145.745 28.3993 147.201 28.3993 148.595 28.3993C150.115 28.3993 151.635 28.3993 153.155 28.3993C157.588 28.3993 161.958 28.336 166.265 28.2093C170.698 28.0826 174.371 27.956 177.285 27.8293ZM193.262 27.8293C195.922 27.956 199.406 28.0826 203.712 28.2093C208.019 28.336 212.262 28.3993 216.442 28.3993C222.396 28.3993 228.096 28.336 233.542 28.2093C238.989 28.0826 242.852 28.0193 245.132 28.0193C255.392 28.0193 263.879 29.476 270.592 32.3893C277.432 35.3026 282.499 39.2926 285.792 44.3593C289.212 49.2993 290.922 54.8726 290.922 61.0793C290.922 64.8793 290.162 68.9326 288.642 73.2393C287.122 77.546 284.462 81.5993 280.662 85.3993C276.989 89.1993 271.922 92.366 265.462 94.8993C259.002 97.306 250.832 98.5093 240.952 98.5093H222.712V94.7093H239.052C248.046 94.7093 254.886 93.316 259.572 90.5293C264.386 87.616 267.616 83.816 269.262 79.1293C271.036 74.316 271.922 68.996 271.922 63.1693C271.922 53.1626 269.516 45.436 264.702 39.9893C260.016 34.416 251.909 31.6293 240.382 31.6293C234.556 31.6293 230.756 32.706 228.982 34.8593C227.209 37.0126 226.322 41.3826 226.322 47.9693V142.209C226.322 146.769 226.702 150.189 227.462 152.469C228.222 154.749 229.679 156.269 231.832 157.029C234.112 157.789 237.406 158.296 241.712 158.549V162.349C238.799 162.096 235.126 161.969 230.692 161.969C226.386 161.843 222.016 161.779 217.582 161.779C212.642 161.779 208.019 161.843 203.712 161.969C199.406 161.969 195.922 162.096 193.262 162.349V158.549C197.569 158.296 200.799 157.789 202.952 157.029C205.232 156.269 206.752 154.749 207.512 152.469C208.272 150.189 208.652 146.769 208.652 142.209V47.9693C208.652 43.2826 208.272 39.8626 207.512 37.7093C206.752 35.4293 205.232 33.9093 202.952 33.1493C200.799 32.2626 197.569 31.756 193.262 31.6293V27.8293ZM223.472 95.2793C230.312 95.5326 235.696 95.8493 239.622 96.2293C243.549 96.4826 246.716 96.736 249.122 96.9893C251.656 97.2426 254.062 97.5593 256.342 97.9393C264.829 99.3326 270.909 101.929 274.582 105.729C278.382 109.403 281.169 115.166 282.942 123.019L287.692 142.399C288.959 147.973 290.226 152.026 291.492 154.559C292.886 156.966 294.976 158.106 297.762 157.979C299.916 157.853 301.689 157.156 303.082 155.889C304.602 154.623 306.186 152.913 307.832 150.759L310.682 152.849C308.022 156.776 305.236 159.816 302.322 161.969C299.536 163.996 295.546 165.009 290.352 165.009C285.666 165.009 281.549 163.616 278.002 160.829C274.456 158.043 271.796 152.596 270.022 144.489L265.842 125.489C264.702 120.043 263.372 115.356 261.852 111.429C260.459 107.376 258.432 104.209 255.772 101.929C253.239 99.6493 249.439 98.5093 244.372 98.5093H223.852L223.472 95.2793Z" fill="#86EAF8"/>
</g>
</g>
<defs>
<filter id="filter0_d_9_21" x="23.7546" y="27.8293" width="290.928" height="145.18" filterUnits="userSpaceOnUse" color-interpolation-filters="sRGB">
<feFlood flood-opacity="0" result="BackgroundImageFix"/>
<feColorMatrix in="SourceAlpha" type="matrix" values="0 0 0 0 0 0 0 0 0 0 0 0 0 0 0 0 0 0 127 0" result="hardAlpha"/>
<feOffset dy="4"/>
<feGaussianBlur stdDeviation="2"/>
<feComposite in2="hardAlpha" operator="out"/>
<feColorMatrix type="matrix" values="0 0 0 0 0 0 0 0 0 0 0 0 0 0 0 0 0 0 0.25 0"/>
<feBlend mode="normal" in2="BackgroundImageFix" result="effect1_dropShadow_9_21"/>
<feBlend mode="normal" in="SourceGraphic" in2="effect1_dropShadow_9_21" result="shape"/>
</filter>
</defs>
</svg>
